# This file uses centimeters as units for non-parametric coordinates.

mtllib brokenfloor.mtl
g default
v -8.690392 0.702034 -8.641048
v -8.690392 -0.702034 -8.641048
v -4.327825 0.702034 -8.641048
v -4.278862 -0.702034 -8.641048
v -3.179963 -0.702034 -2.870225
v -8.690392 -0.702034 -0.168846
v -8.690392 0.702034 -0.218239
v -3.132832 0.702034 -2.926837
vt 0.617660 0.664738
vt 0.642922 0.750407
vt 0.614748 0.580634
vt 0.947139 0.664738
vt 0.282358 0.664740
vt 0.392377 0.559685
vt 0.472052 0.332671
vt 0.503445 0.666251
vt 0.559244 0.896466
vt 0.668184 1.002420
vt 0.338705 0.000602
vt 0.338705 0.330082
vn 0.000000 0.000000 -1.000000
vn 0.000000 0.000000 -1.000000
vn 0.000000 0.000000 -1.000000
vn 0.000000 0.000000 -1.000000
vn 0.000000 -1.000000 0.000000
vn 0.000000 -1.000000 0.000000
vn 0.000000 -1.000000 0.000000
vn 0.000000 -1.000000 0.000000
vn 0.000000 1.000000 0.000000
vn 0.000000 1.000000 0.000000
vn 0.000000 1.000000 0.000000
vn 0.000000 1.000000 0.000000
vn -1.000000 0.000000 0.000000
vn -1.000000 0.000000 0.000000
vn -1.000000 0.000000 0.000000
vn -1.000000 0.000000 0.000000
vn 0.980626 -0.003309 -0.195859
vn 0.980626 -0.003309 -0.195859
vn 0.980626 -0.003309 -0.195859
vn 0.980626 -0.003309 -0.195859
vn 0.438987 0.026534 0.898101
vn 0.438987 0.026534 0.898101
vn 0.438987 0.026534 0.898101
vn 0.438987 0.026534 0.898101
s off
g polySurface145 polySurface142 pCube2
usemtl lambert8SG
f 1/1/1 3/2/2 4/3/3 2/4/4
f 2/5/5 4/3/6 5/6/7 6/7/8
f 7/8/9 8/9/10 3/2/11 1/10/12
f 2/11/13 6/7/14 7/8/15 1/12/16
f 3/2/17 8/9/18 5/6/19 4/3/20
f 8/9/21 7/8/22 6/7/23 5/6/24
g default
v 8.609264 0.702034 -8.641605
v 8.609264 -0.702034 -8.641605
v -3.115275 0.702034 -2.927393
v -4.310262 0.702034 -8.641605
v -4.261300 -0.702034 -8.641605
v -3.162404 -0.702034 -2.870781
vt 0.642922 0.750407
vt 0.559244 0.896466
vt 0.642922 0.504100
vt 0.392377 0.559685
vt 0.614748 0.580634
vt 0.614748 0.335259
vn 0.000000 1.000000 0.000000
vn 0.000000 1.000000 0.000000
vn 0.000000 1.000000 0.000000
vn 0.000000 -1.000000 0.000000
vn 0.000000 -1.000000 0.000000
vn 0.000000 -1.000000 0.000000
vn 0.000000 0.000000 -1.000000
vn 0.000000 0.000000 -1.000000
vn 0.000000 0.000000 -1.000000
vn 0.000000 0.000000 -1.000000
vn 0.439123 0.010741 0.898363
vn 0.439123 0.010741 0.898363
vn 0.439123 0.010741 0.898363
vn 0.439123 0.010741 0.898363
vn -0.980627 0.003308 0.195858
vn -0.980627 0.003308 0.195858
vn -0.980627 0.003308 0.195858
vn -0.980627 0.003308 0.195858
s off
g pCube2 polySurface143
usemtl lambert8SG
f 12/13/25 11/14/26 9/15/27
f 14/16/28 13/17/29 10/18/30
f 13/17/31 12/13/32 9/15/33 10/18/34
f 14/16/35 10/18/36 9/15/37 11/14/38
f 11/14/39 12/13/40 13/17/41 14/16/42
g default
v -8.686072 0.702034 -0.218239
v -8.686072 0.702034 2.356013
v -5.428000 0.702034 4.077617
v -5.316313 0.702034 -1.860565
v -8.686072 -0.702034 -0.168846
v -8.686072 -0.702034 2.391908
v -5.265643 -0.702034 4.208072
v -5.151758 -0.702034 -1.901473
vt 0.503445 0.666251
vt 0.425706 0.940305
vt 0.538916 0.938176
vt 0.503445 0.666251
vt 0.472052 0.332671
vt 0.410846 0.597359
vt 0.527323 0.599530
vt 0.520872 0.332671
vn 0.000000 1.000000 0.000000
vn 0.000000 1.000000 0.000000
vn 0.000000 1.000000 0.000000
vn 0.000000 1.000000 0.000000
vn 0.000000 -1.000000 0.000000
vn 0.000000 -1.000000 0.000000
vn 0.000000 -1.000000 0.000000
vn 0.000000 -1.000000 0.000000
vn -1.000000 0.000000 0.000000
vn -1.000000 0.000000 0.000000
vn -1.000000 0.000000 0.000000
vn -1.000000 0.000000 0.000000
vn -0.438994 -0.028438 -0.898040
vn -0.438994 -0.028438 -0.898040
vn -0.438994 -0.028438 -0.898040
vn -0.438994 -0.028438 -0.898040
vn 0.993052 0.116200 0.018593
vn 0.993052 0.116200 0.018593
vn 0.993052 0.116200 0.018593
vn 0.993052 0.116200 0.018593
vn -0.467954 0.025275 0.883391
vn -0.467954 0.025275 0.883391
vn -0.467954 0.025275 0.883391
vn -0.467954 0.025275 0.883391
s off
g polySurface142 pCube2 polySurface147 polySurface144
usemtl lambert8SG
f 16/19/43 17/20/44 18/21/45 15/22/46
f 19/23/47 22/24/48 21/25/49 20/26/50
f 15/22/51 19/23/52 20/26/53 16/19/54
f 15/22/55 18/21/56 22/24/57 19/23/58
f 21/25/59 22/24/60 18/21/61 17/20/62
f 17/20/63 16/19/64 20/26/65 21/25/66
g default
v -5.354273 0.702034 1.235271
v -5.295790 0.702034 -1.874217
v -5.131236 -0.702034 -1.915126
v -5.191737 -0.702034 1.330468
v 0.647176 0.702034 -4.769586
v 0.396169 -0.702034 -4.623729
v 1.021978 0.702034 0.053586
v 0.869809 -0.702034 0.240537
vt 0.479634 0.939291
vt 0.538916 0.938176
vt 0.410846 0.597359
vt 0.472723 0.598512
vt 0.359283 0.492178
vt 0.452020 0.483148
vt 0.594039 0.825073
vt 0.502087 0.817927
vn -0.993072 -0.116030 -0.018593
vn -0.993072 -0.116030 -0.018593
vn -0.993072 -0.116030 -0.018593
vn -0.993072 -0.116030 -0.018593
vn -0.438884 -0.020061 -0.898320
vn -0.438884 -0.020061 -0.898320
vn -0.438884 -0.020061 -0.898320
vn -0.438884 -0.020061 -0.898320
vn 0.000000 -1.000000 0.000000
vn 0.000000 -1.000000 0.000000
vn 0.000000 -1.000000 0.000000
vn 0.000000 -1.000000 0.000000
vn 0.000000 1.000000 0.000000
vn 0.000000 1.000000 0.000000
vn 0.000000 1.000000 0.000000
vn 0.000000 1.000000 0.000000
vn 0.178783 0.099015 0.978894
vn 0.178783 0.099015 0.978894
vn 0.178783 0.099015 0.978894
vn 0.178783 0.099015 0.978894
vn 0.984674 -0.151592 -0.086239
vn 0.984674 -0.151592 -0.086239
vn 0.984674 -0.151592 -0.086239
vn 0.984674 -0.151592 -0.086239
s off
g polySurface173
usemtl lambert8SG
f 23/27/67 24/28/68 25/29/69 26/30/70
f 25/29/71 24/28/72 27/33/73 28/31/74
f 25/29/75 28/31/76 30/32/77 26/30/78
f 23/27/79 29/34/80 27/33/81 24/28/82
f 26/30/83 30/32/84 29/34/85 23/27/86
f 27/33/87 29/34/88 30/32/89 28/31/90
g default
v -5.414758 0.702034 4.074285
v -0.348169 0.702034 6.751529
v 1.700480 0.702034 5.159089
v 0.024291 0.702034 3.402726
v 1.520743 -0.702034 5.282987
v -0.050764 -0.702034 3.594512
v -0.407735 -0.702034 6.777143
v -5.252405 -0.702034 4.204740
vt 0.405024 0.804655
vt 0.438509 0.836611
vt 0.425706 0.940305
vt 0.374665 0.843712
vt 0.527323 0.599530
vt 0.515690 0.500362
vt 0.547880 0.470401
vt 0.576366 0.507167
vn 0.000000 1.000000 0.000000
vn 0.000000 1.000000 0.000000
vn 0.000000 1.000000 0.000000
vn 0.000000 1.000000 0.000000
vn 0.000000 -1.000000 0.000000
vn 0.000000 -1.000000 0.000000
vn 0.000000 -1.000000 0.000000
vn 0.000000 -1.000000 0.000000
vn -0.118777 -0.116841 -0.986022
vn -0.118777 -0.116841 -0.986022
vn -0.118777 -0.116841 -0.986022
vn -0.118777 -0.116841 -0.986022
vn 0.720279 -0.141692 -0.679059
vn 0.720279 -0.141692 -0.679059
vn 0.720279 -0.141692 -0.679059
vn 0.720279 -0.141692 -0.679059
vn 0.613076 -0.010185 0.789958
vn 0.613076 -0.010185 0.789958
vn 0.613076 -0.010185 0.789958
vn 0.613076 -0.010185 0.789958
vn -0.467823 0.031965 0.883244
vn -0.467823 0.031965 0.883244
vn -0.467823 0.031965 0.883244
vn -0.467823 0.031965 0.883244
s off
g polySurface171
usemtl lambert8SG
f 33/35/91 34/36/92 31/37/93 32/38/94
f 38/39/95 36/40/96 35/41/97 37/42/98
f 31/37/99 34/36/100 36/40/101 38/39/102
f 34/36/103 33/35/104 35/41/105 36/40/106
f 33/35/107 32/38/108 37/42/109 35/41/110
f 32/38/111 31/37/112 38/39/113 37/42/114
g default
v 5.010304 0.702034 -2.920361
v 5.033188 0.702034 -0.682167
v 4.836190 -0.702034 -2.723203
v 4.859444 -0.702034 -0.468909
v 0.609086 0.702034 -4.756217
v 0.983891 0.702034 0.066955
v 0.831719 -0.702034 0.253905
v 0.358082 -0.702034 -4.610360
vt 0.594039 0.825073
vt 0.502087 0.817927
vt 0.516369 0.740728
vt 0.559039 0.741165
vt 0.452020 0.483148
vt 0.438239 0.406360
vt 0.395262 0.406804
vt 0.359283 0.492178
vn 0.000000 1.000000 0.000000
vn 0.000000 1.000000 0.000000
vn 0.000000 1.000000 0.000000
vn 0.000000 1.000000 0.000000
vn 0.178020 0.118558 0.976859
vn 0.178020 0.118558 0.976859
vn 0.178020 0.118558 0.976859
vn 0.178020 0.118558 0.976859
vn 0.992180 -0.124396 -0.010190
vn 0.992180 -0.124396 -0.010190
vn 0.992180 -0.124396 -0.010190
vn 0.992180 -0.124396 -0.010190
vn 0.381132 -0.168731 -0.908993
vn 0.381132 -0.168731 -0.908993
vn 0.381132 -0.168731 -0.908993
vn 0.381132 -0.168731 -0.908993
vn 0.000000 -1.000000 -0.000000
vn 0.000000 -1.000000 -0.000000
vn 0.000000 -1.000000 -0.000000
vn 0.000000 -1.000000 -0.000000
vn -0.984674 0.151592 0.086239
vn -0.984674 0.151592 0.086239
vn -0.984674 0.151592 0.086239
vn -0.984674 0.151592 0.086239
s off
g polySurface174 polySurface172 polySurface158
usemtl lambert8SG
f 43/43/115 44/44/116 40/45/117 39/46/118
f 40/45/119 44/44/120 45/47/121 42/48/122
f 39/46/123 40/45/124 42/48/125 41/49/126
f 43/43/127 39/46/128 41/49/129 46/50/130
f 42/48/131 45/47/132 46/50/133 41/49/134
f 44/44/135 43/43/136 46/50/137 45/47/138
g default
v -5.414758 0.702034 4.052905
v 0.024291 0.702034 3.381347
v -2.533662 0.702034 0.701049
v -5.361558 0.702034 1.224212
v -2.584981 -0.702034 0.850295
v -5.199022 -0.702034 1.319408
v -5.252405 -0.702034 4.183360
v -0.050764 -0.702034 3.573135
vt 0.425706 0.940305
vt 0.438509 0.836611
vt 0.489608 0.885378
vt 0.479634 0.939291
vt 0.527323 0.599530
vt 0.472723 0.598512
vt 0.463779 0.548676
vt 0.515690 0.500362
vn 0.000000 1.000000 0.000000
vn 0.000000 1.000000 0.000000
vn 0.000000 1.000000 0.000000
vn 0.000000 1.000000 0.000000
vn 0.000000 -1.000000 0.000000
vn 0.000000 -1.000000 0.000000
vn 0.000000 -1.000000 0.000000
vn 0.000000 -1.000000 0.000000
vn -0.178614 -0.092344 -0.979576
vn -0.178614 -0.092344 -0.979576
vn -0.178614 -0.092344 -0.979576
vn -0.178614 -0.092344 -0.979576
vn 0.722887 -0.115271 -0.681283
vn 0.722887 -0.115271 -0.681283
vn 0.722887 -0.115271 -0.681283
vn 0.722887 -0.115271 -0.681283
vn 0.118777 0.116842 0.986022
vn 0.118777 0.116842 0.986022
vn 0.118777 0.116842 0.986022
vn 0.118777 0.116842 0.986022
vn -0.993030 -0.116384 -0.018592
vn -0.993030 -0.116384 -0.018592
vn -0.993030 -0.116384 -0.018592
vn -0.993030 -0.116384 -0.018592
s off
g polySurface166
usemtl lambert8SG
f 47/51/139 48/52/140 49/53/141 50/54/142
f 53/55/143 52/56/144 51/57/145 54/58/146
f 50/54/147 49/53/148 51/57/149 52/56/150
f 49/53/151 48/52/152 54/58/153 51/57/154
f 48/52/155 47/51/156 53/55/157 54/58/158
f 47/51/159 50/54/160 52/56/161 53/55/162
g default
v -5.361558 0.702034 1.249399
v -2.533662 0.702034 0.726237
v 1.520743 -0.702034 5.286795
v -0.407735 -0.702034 6.780951
v -5.252405 -0.702034 4.208548
v -0.050764 -0.702034 3.598320
v -2.584981 -0.702034 0.875481
v -5.199022 -0.702034 1.344595
v -0.348169 0.702034 6.755337
v -5.414758 0.702034 4.078093
v 1.700480 0.702034 5.162898
v 0.024291 0.702034 3.406535
vt 0.425706 0.940305
vt 0.479634 0.939291
vt 0.472723 0.598512
vt 0.527323 0.599530
vt 0.489608 0.885378
vt 0.463779 0.548676
vt 0.374665 0.843712
vt 0.425706 0.940305
vt 0.527323 0.599530
vt 0.576366 0.507167
vt 0.405024 0.804655
vt 0.547880 0.470401
vt 0.438509 0.836611
vt 0.515690 0.500362
vn -0.993030 -0.116384 -0.018592
vn -0.993030 -0.116384 -0.018592
vn -0.993030 -0.116384 -0.018592
vn -0.993030 -0.116384 -0.018592
vn -0.178615 -0.092344 -0.979576
vn -0.178615 -0.092344 -0.979576
vn -0.178615 -0.092344 -0.979576
vn -0.178615 -0.092344 -0.979576
vn -0.467824 0.031965 0.883244
vn -0.467824 0.031965 0.883244
vn -0.467824 0.031965 0.883244
vn -0.467824 0.031965 0.883244
vn 0.613076 -0.010185 0.789958
vn 0.613077 -0.010185 0.789958
vn 0.613076 -0.010185 0.789958
vn 0.613076 -0.010185 0.789958
vn 0.721931 -0.125590 -0.680473
vn 0.721931 -0.125590 -0.680473
vn 0.721931 -0.125590 -0.680473
vn 0.721931 -0.125590 -0.680473
vn 0.721931 -0.125590 -0.680473
vn 0.721931 -0.125590 -0.680473
s off
g polySurface170 polySurface167 polySurface164
usemtl lambert8SG
f 64/59/163 55/60/164 62/61/165 59/62/166
f 55/60/167 56/63/168 61/64/169 62/61/170
f 63/65/171 64/66/172 59/67/173 58/68/174
f 65/69/175 63/65/176 58/68/177 57/70/178
f 56/63/179 66/71/180 65/69/181 57/70/182 60/72/183 61/64/184
g default
v 1.700480 0.702034 5.159478
v 5.086413 0.702034 2.527549
v -2.533662 0.702034 0.722816
v 5.053610 0.702034 -0.680834
v 4.879866 -0.702034 -0.467576
v 4.912081 -0.702034 2.655816
v 1.520743 -0.702034 5.283375
v -2.584981 -0.702034 0.872060
vt 0.516369 0.740728
vt 0.489608 0.885378
vt 0.405024 0.804655
vt 0.455201 0.740103
vt 0.547880 0.470401
vt 0.463779 0.548676
vt 0.438239 0.406360
vt 0.497786 0.405746
vn 0.000000 1.000000 -0.000000
vn 0.000000 1.000000 -0.000000
vn 0.000000 1.000000 -0.000000
vn 0.000000 1.000000 -0.000000
vn 0.000000 -1.000000 0.000000
vn 0.000000 -1.000000 0.000000
vn 0.000000 -1.000000 0.000000
vn 0.000000 -1.000000 0.000000
vn -0.721931 0.125589 0.680473
vn -0.721931 0.125589 0.680473
vn -0.721931 0.125589 0.680473
vn -0.721931 0.125589 0.680473
vn -0.178173 -0.111920 -0.977614
vn -0.178173 -0.111920 -0.977614
vn -0.178173 -0.111920 -0.977614
vn -0.178173 -0.111920 -0.977614
vn 0.992202 -0.124225 -0.010188
vn 0.992202 -0.124225 -0.010188
vn 0.992202 -0.124225 -0.010188
vn 0.992202 -0.124225 -0.010188
vn 0.613077 -0.006359 0.789998
vn 0.613077 -0.006359 0.789998
vn 0.613077 -0.006359 0.789998
vn 0.613077 -0.006359 0.789998
s off
g polySurface161
usemtl lambert8SG
f 70/73/185 69/74/186 67/75/187 68/76/188
f 73/77/189 74/78/190 71/79/191 72/80/192
f 67/75/193 69/74/194 74/78/195 73/77/196
f 69/74/197 70/73/198 71/79/199 74/78/200
f 70/73/201 68/76/202 72/80/203 71/79/204
f 68/76/205 67/75/206 73/77/207 72/80/208
g default
v 8.653539 0.702034 -8.641048
v 8.653539 -0.702034 -8.641048
v 8.653539 0.702034 -1.423388
v 8.653539 -0.702034 -1.137491
v 0.673780 0.702034 -4.751940
v 0.422779 -0.702034 -4.606082
vt 0.594039 0.825073
vt 0.362174 0.835474
vt 0.499777 0.835474
vt 0.306864 0.501894
vt 0.306864 0.501894
vt 0.359283 0.492178
vn 0.000000 1.000000 0.000000
vn 0.000000 1.000000 0.000000
vn 0.000000 1.000000 0.000000
vn 1.000000 -0.000000 0.000000
vn 1.000000 -0.000000 0.000000
vn 1.000000 -0.000000 0.000000
vn 1.000000 -0.000000 0.000000
vn 0.000000 -1.000000 0.000000
vn 0.000000 -1.000000 0.000000
vn 0.000000 -1.000000 0.000000
vn -0.439150 -0.007410 -0.898383
vn -0.439150 -0.007410 -0.898383
vn -0.439150 -0.007410 -0.898383
vn -0.439150 -0.007410 -0.898383
vn -0.380811 0.173675 0.908196
vn -0.380811 0.173675 0.908196
vn -0.380811 0.173675 0.908196
vn -0.380811 0.173675 0.908196
s off
g polySurface142 pCube2 polySurface144 polySurface156 polySurface154 polySurface153 polySurface150 polySurface148 polySurface146
usemtl lambert8SG
f 79/81/209 77/82/210 75/83/211
f 77/82/212 78/84/213 76/85/214 75/83/215
f 78/84/216 80/86/217 76/85/218
f 79/81/219 75/83/220 76/85/221 80/86/222
f 80/86/223 78/84/224 77/82/225 79/81/226
g default
v 8.632754 0.702034 -1.423388
v 5.054217 0.702034 -2.916084
v 8.632754 0.702034 4.736803
v 8.632754 -0.702034 -1.137491
v 4.880103 -0.702034 -2.718925
v 8.632754 -0.702034 4.788090
v 4.964574 -0.702034 5.470888
v 5.139583 0.702034 5.432958
vt 0.559039 0.741165
vt 0.399867 0.739537
vt 0.244731 0.835474
vt 0.362174 0.835474
vt 0.306864 0.501894
vt 0.551399 0.405193
vt 0.395262 0.406804
vt 0.306864 0.501894
vn 0.000000 1.000000 0.000000
vn 0.000000 1.000000 0.000000
vn 0.000000 1.000000 0.000000
vn 0.000000 1.000000 0.000000
vn 0.000000 -1.000000 0.000000
vn 0.000000 -1.000000 0.000000
vn 0.000000 -1.000000 0.000000
vn 0.000000 -1.000000 0.000000
vn 1.000000 0.000000 0.000000
vn 1.000000 0.000000 0.000000
vn 1.000000 0.000000 0.000000
vn 1.000000 0.000000 0.000000
vn 0.189046 0.019410 0.981776
vn 0.189046 0.019410 0.981776
vn 0.189046 0.019410 0.981776
vn 0.189046 0.019410 0.981776
vn -0.992204 0.124209 0.010189
vn -0.992204 0.124209 0.010189
vn -0.992204 0.124209 0.010189
vn -0.992204 0.124209 0.010189
vn 0.380410 -0.179644 -0.907202
vn 0.380410 -0.179644 -0.907202
vn 0.380410 -0.179644 -0.907202
vn 0.380410 -0.179644 -0.907202
s off
g polySurface142 pCube2 polySurface144 polySurface153 polySurface150 polySurface148 polySurface146 polySurface155
usemtl lambert8SG
f 82/87/227 88/88/228 83/89/229 81/90/230
f 86/91/231 87/92/232 85/93/233 84/94/234
f 83/89/235 86/91/236 84/94/237 81/90/238
f 83/89/239 88/88/240 87/92/241 86/91/242
f 88/88/243 82/87/244 85/93/245 87/92/246
f 82/87/247 81/90/248 84/94/249 85/93/250
g default
v 8.609264 -0.702034 8.641048
v 8.609264 0.702034 8.641048
v 5.148888 0.702034 8.641048
v 4.973784 -0.702034 8.641048
v 8.609264 0.702034 4.736803
v 5.116090 0.702034 5.432958
v 8.609264 -0.702034 4.788090
v 4.941085 -0.702034 5.470888
vt 0.302052 0.742219
vt 0.436949 0.410308
vt 0.331371 0.416046
vt 0.331371 0.745526
vt 0.244731 0.835474
vt 0.399867 0.739537
vt 0.338705 0.672941
vt 0.551399 0.405193
vt 0.306864 0.501894
vt 0.611837 0.335260
vt 0.001890 0.668528
vt 0.001890 0.998008
vn 0.000000 0.000000 1.000000
vn 0.000000 0.000000 1.000000
vn 0.000000 0.000000 1.000000
vn 0.000000 0.000000 1.000000
vn 0.000000 1.000000 0.000000
vn 0.000000 1.000000 0.000000
vn 0.000000 1.000000 0.000000
vn 0.000000 1.000000 0.000000
vn 0.000000 -1.000000 0.000000
vn 0.000000 -1.000000 0.000000
vn 0.000000 -1.000000 0.000000
vn 0.000000 -1.000000 0.000000
vn 1.000000 0.000000 0.000000
vn 1.000000 0.000000 0.000000
vn 1.000000 0.000000 0.000000
vn 1.000000 0.000000 0.000000
vn -0.189046 -0.019411 -0.981776
vn -0.189046 -0.019411 -0.981776
vn -0.189046 -0.019411 -0.981776
vn -0.189046 -0.019411 -0.981776
vn -0.992249 0.123848 0.010189
vn -0.992249 0.123848 0.010189
vn -0.992249 0.123848 0.010189
vn -0.992249 0.123848 0.010189
s off
g polySurface142 pCube2 polySurface144 polySurface150 polySurface148 polySurface146 polySurface152
usemtl lambert8SG
f 91/95/251 92/96/252 89/97/253 90/98/254
f 93/99/255 94/100/256 91/95/257 90/101/258
f 92/96/259 96/102/260 95/103/261 89/104/262
f 89/105/263 95/103/264 93/99/265 90/106/266
f 94/100/267 93/99/268 95/103/269 96/102/270
f 96/102/271 92/96/272 91/95/273 94/100/274
g default
v 5.148888 0.702034 8.674757
v 5.086419 0.702034 2.564203
v 4.973784 -0.702034 8.674756
v 4.912082 -0.702034 2.692470
v -2.774722 0.702034 8.674757
v -2.809140 -0.702034 8.674756
vt 0.455201 0.740103
vt 0.226521 0.817750
vt 0.302052 0.742219
vt 0.362759 0.484498
vt 0.497786 0.405746
vt 0.436949 0.410308
vn 0.000000 1.000000 0.000000
vn 0.000000 1.000000 0.000000
vn 0.000000 1.000000 0.000000
vn 0.000000 -1.000000 0.000000
vn 0.000000 -1.000000 0.000000
vn 0.000000 -1.000000 0.000000
vn 0.000000 -0.000000 1.000000
vn 0.000000 -0.000000 1.000000
vn 0.000000 -0.000000 1.000000
vn 0.000000 -0.000000 1.000000
vn -0.613067 0.009491 -0.789974
vn -0.613067 0.009491 -0.789974
vn -0.613067 0.009491 -0.789974
vn -0.613067 0.009491 -0.789974
vn 0.992238 -0.123938 -0.010188
vn 0.992238 -0.123938 -0.010188
vn 0.992238 -0.123938 -0.010188
vn 0.992238 -0.123938 -0.010188
s off
g polySurface142 pCube2 polySurface144 polySurface148 polySurface146 polySurface151
usemtl lambert8SG
f 98/107/275 101/108/276 97/109/277
f 102/110/278 100/111/279 99/112/280
f 101/108/281 102/110/282 99/112/283 97/109/284
f 100/111/285 102/110/286 101/108/287 98/107/288
f 99/112/289 100/111/290 98/107/291 97/109/292
g default
v -8.672833 -0.702034 8.663648
v -8.672833 0.702034 8.663648
v -2.774722 0.702034 8.663648
v -0.348168 0.702034 6.777460
v -2.809140 -0.702034 8.663648
v -0.407737 -0.702034 6.803072
v -8.672833 0.702034 2.378613
v -8.672833 -0.702034 2.414507
vt 0.503445 0.666251
vt 0.520872 0.332671
vt 0.668185 0.000602
vt 0.668185 0.330082
vt 0.338705 1.002420
vt 0.226521 0.817750
vt 0.374665 0.843712
vt 0.576366 0.507167
vt 0.362759 0.484498
vt 0.611837 0.664740
vt 0.001891 0.416046
vt 0.001891 0.745526
vn -1.000000 0.000000 0.000000
vn -1.000000 0.000000 0.000000
vn -1.000000 0.000000 0.000000
vn -1.000000 0.000000 0.000000
vn 0.000000 1.000000 0.000000
vn 0.000000 1.000000 0.000000
vn 0.000000 1.000000 0.000000
vn 0.000000 1.000000 0.000000
vn 0.000000 -1.000000 0.000000
vn 0.000000 -1.000000 0.000000
vn 0.000000 -1.000000 0.000000
vn 0.000000 -1.000000 0.000000
vn 0.000000 0.000000 1.000000
vn 0.000000 0.000000 1.000000
vn 0.000000 0.000000 1.000000
vn 0.000000 0.000000 1.000000
vn 0.467878 -0.029272 -0.883308
vn 0.467878 -0.029272 -0.883308
vn 0.467878 -0.029272 -0.883308
vn 0.467878 -0.029272 -0.883308
vn 0.613038 -0.013313 0.789941
vn 0.613038 -0.013313 0.789941
vn 0.613038 -0.013313 0.789941
vn 0.613038 -0.013313 0.789941
s off
g polySurface142 pCube2 polySurface144 polySurface146 polySurface149
usemtl lambert8SG
f 109/113/293 110/114/294 103/115/295 104/116/296
f 104/117/297 105/118/298 106/119/299 109/113/300
f 110/114/301 108/120/302 107/121/303 103/122/304
f 103/123/305 107/121/306 105/118/307 104/124/308
f 106/119/309 108/120/310 110/114/311 109/113/312
f 106/119/313 105/118/314 107/121/315 108/120/316
