# This file uses centimeters as units for non-parametric coordinates.

mtllib breakingfloor.mtl
g default
v -8.641050 -0.702034 8.641050
v 8.641050 -0.702034 8.641050
v -8.641050 0.702034 8.641050
v 8.641050 0.702034 8.641050
v -8.641050 0.702034 -8.641050
v 8.641050 0.702034 -8.641050
v -8.641050 -0.702034 -8.641050
v 8.641050 -0.702034 -8.641050
vt 0.001890 0.668528
vt 0.331370 0.668528
vt 0.331370 0.998008
vt 0.001890 0.998008
vt 0.338705 0.000602
vt 0.668185 0.000602
vt 0.668185 0.330082
vt 0.338705 0.330082
vt 0.338705 1.002420
vt 0.338705 0.672941
vt 0.668184 0.672941
vt 0.668184 1.002420
vt 0.282358 0.664740
vt 0.282358 0.335260
vt 0.611837 0.335260
vt 0.611837 0.664740
vt 0.001891 0.416046
vt 0.331371 0.416046
vt 0.331371 0.745526
vt 0.001891 0.745526
vt 0.617660 0.664738
vt 0.617660 0.335259
vt 0.947139 0.335259
vt 0.947139 0.664738
vn 0.000000 0.000000 1.000000
vn 0.000000 0.000000 1.000000
vn 0.000000 0.000000 1.000000
vn 0.000000 0.000000 1.000000
vn 0.000000 1.000000 0.000000
vn 0.000000 1.000000 0.000000
vn 0.000000 1.000000 0.000000
vn 0.000000 1.000000 0.000000
vn 0.000000 0.000000 -1.000000
vn 0.000000 0.000000 -1.000000
vn 0.000000 0.000000 -1.000000
vn 0.000000 0.000000 -1.000000
vn 0.000000 -1.000000 0.000000
vn 0.000000 -1.000000 0.000000
vn 0.000000 -1.000000 0.000000
vn 0.000000 -1.000000 0.000000
vn 1.000000 0.000000 0.000000
vn 1.000000 0.000000 0.000000
vn 1.000000 0.000000 0.000000
vn 1.000000 0.000000 0.000000
vn -1.000000 0.000000 0.000000
vn -1.000000 0.000000 0.000000
vn -1.000000 0.000000 0.000000
vn -1.000000 0.000000 0.000000
s off
g pCube2
usemtl lambert8SG
f 1/17/1 2/18/2 4/19/3 3/20/4
f 3/9/5 4/10/6 6/11/7 5/12/8
f 5/21/9 6/22/10 8/23/11 7/24/12
f 7/13/13 8/14/14 2/15/15 1/16/16
f 2/1/17 8/2/18 6/3/19 4/4/20
f 7/5/21 1/6/22 3/7/23 5/8/24
